<?xml version="1.0" encoding="utf-8"?>
<!-- Generator: Adobe Illustrator 25.4.1, SVG Export Plug-In . SVG Version: 6.00 Build 0)  -->
<svg version="1.1" id="Layer_1" xmlns="http://www.w3.org/2000/svg" xmlns:xlink="http://www.w3.org/1999/xlink" x="0px" y="0px"
	 viewBox="0 0 1186.43 234.78" style="enable-background:new 0 0 1186.43 234.78;" xml:space="preserve">
<style type="text/css">
	.st0{fill:#A21D6E;}
	.st1{clip-path:url(#SVGID_00000152974199679536666240000003024970699294865062_);fill:#A21D6E;}
	
		.st2{clip-path:url(#SVGID_00000151508214313362247270000018405102655323212957_);fill:url(#SVGID_00000019675100191773393690000008985321023586071230_);}
	.st3{clip-path:url(#SVGID_00000126305126518323567610000017931605938674623390_);fill:#442B6C;}
	.st4{clip-path:url(#SVGID_00000126305126518323567610000017931605938674623390_);fill:#A21D6E;}
</style>
<rect x="870.38" y="58.26" class="st0" width="17.57" height="119.53"/>
<g>
	<defs>
		<rect id="SVGID_1_" x="-362.43" y="-421.39" width="1920" height="1080"/>
	</defs>
	<clipPath id="SVGID_00000101094035902168866710000008557695792137292451_">
		<use xlink:href="#SVGID_1_"  style="overflow:visible;"/>
	</clipPath>
	<path style="clip-path:url(#SVGID_00000101094035902168866710000008557695792137292451_);fill:#A21D6E;" d="M876.17,58.23
		c4.08,11.84,11.67,25.15,11.67,19.07c0-10.25,8.12-18.55,18.13-18.55c0.63,0,1.14-0.18,1.53-0.51H876.17z"/>
	<path style="clip-path:url(#SVGID_00000101094035902168866710000008557695792137292451_);fill:#A21D6E;" d="M882.06,58.23
		c-4.09,11.84-11.67,25.15-11.67,19.07c0-10.25-8.12-18.55-18.13-18.55c-0.63,0-1.14-0.18-1.53-0.51H882.06z"/>
	<path style="clip-path:url(#SVGID_00000101094035902168866710000008557695792137292451_);fill:#A21D6E;" d="M876.17,177.79
		c4.08-11.84,11.67-25.15,11.67-19.07c0,10.25,8.12,18.56,18.13,18.56c0.63,0,1.14,0.18,1.53,0.51H876.17z"/>
	<path style="clip-path:url(#SVGID_00000101094035902168866710000008557695792137292451_);fill:#A21D6E;" d="M882.06,177.79
		c-4.09-11.84-11.67-25.15-11.67-19.07c0,10.25-8.12,18.56-18.13,18.56c-0.63,0-1.14,0.18-1.53,0.51H882.06z"/>
</g>
<g>
	<defs>
		<path id="SVGID_00000044858887660292697850000008442464273732167813_" d="M927.57,58.25c-21.74,0-31.45,9.1-31.45,13.59h38.83
			c2.95,0,22.63,1.64,24.76,15.58c1.31,7.54,0,22.14-21.16,22.14h-41.61v13.61h39.97c15.58,0,26.73,2.62,28.54,16.89
			c1.31,9.35-3.45,24.11-20.01,24.11h-48.91c0,6.59,13.99,13.61,23.77,13.61h30.06c9.35-0.49,29.03-9.18,30.34-32.31
			c1.31-23.94-17.22-29.36-20.5-31c11.15-5.08,16.89-16.73,15.09-29.85c-0.82-6.4-2.62-11.48-8.04-16.56
			c-5.91-5.74-13.78-9.68-22.8-9.84C944.46,58.23,927.62,58.25,927.57,58.25"/>
	</defs>
	<clipPath id="SVGID_00000052820710763726438580000013387737172902677672_">
		<use xlink:href="#SVGID_00000044858887660292697850000008442464273732167813_"  style="overflow:visible;"/>
	</clipPath>
	
		<linearGradient id="SVGID_00000134237443599836727480000008943674097997283764_" gradientUnits="userSpaceOnUse" x1="-362.4348" y1="658.6087" x2="-361.4348" y2="658.6087" gradientTransform="matrix(84.6523 0 0 -84.6523 31577.041 55870.7266)">
		<stop  offset="0" style="stop-color:#A21D6E"/>
		<stop  offset="0.1668" style="stop-color:#6E256D"/>
		<stop  offset="0.2981" style="stop-color:#432B6C"/>
		<stop  offset="1" style="stop-color:#432B6C"/>
	</linearGradient>
	
		<rect x="896.12" y="58.23" style="clip-path:url(#SVGID_00000052820710763726438580000013387737172902677672_);fill:url(#SVGID_00000134237443599836727480000008943674097997283764_);" width="85.9" height="119.56"/>
</g>
<g>
	<defs>
		<rect id="SVGID_00000013892959571611064770000014942549894464939657_" x="-362.43" y="-421.39" width="1920" height="1080"/>
	</defs>
	<clipPath id="SVGID_00000118383870636030480720000004597138767590785952_">
		<use xlink:href="#SVGID_00000013892959571611064770000014942549894464939657_"  style="overflow:visible;"/>
	</clipPath>
	<polygon style="clip-path:url(#SVGID_00000118383870636030480720000004597138767590785952_);fill:#442B6C;" points="606.91,177.29 
		606.91,58.73 624.4,58.73 624.4,161.89 704.3,161.89 704.3,177.29 	"/>
	<path style="clip-path:url(#SVGID_00000118383870636030480720000004597138767590785952_);fill:#A21D6E;" d="M819.75,178.11
		l-12.4-31.33h-54.92l-12.39,31.33H720.2l48.25-118.56h23.65l48.44,118.56H819.75z M780.27,77.03h-0.76l-21.93,55.56h44.43
		L780.27,77.03z"/>
	<path style="clip-path:url(#SVGID_00000118383870636030480720000004597138767590785952_);fill:#442B6C;" d="M204.81,125.82
		c-2.92-5.26-6.84-9.45-11.76-12.54c2.63-2.98,4.72-6.32,6.27-10.05c1.55-3.72,2.32-7.7,2.32-11.94c0-4.47-0.83-8.64-2.49-12.54
		c-1.66-3.89-3.95-7.3-6.87-10.22c-2.92-2.92-6.3-5.21-10.13-6.87c-3.84-1.66-7.99-2.49-12.45-2.49h-58.2h-7.9h-7.9h-1.56H78.78
		v15.97v6.87h15.35v-6.87h1.56h15.8h7.58h50.61c2.17,0,4.26,0.43,6.27,1.29c2,0.86,3.72,2,5.15,3.43c1.43,1.43,2.58,3.15,3.43,5.15
		c0.86,2,1.29,4.09,1.29,6.27c0,4.47-1.58,8.24-4.72,11.34c-3.15,3.09-6.96,4.64-11.42,4.64h-67.52h-7.58h-15.8v15.97v55.64h15.8
		h78.99c4.91,0,9.5-0.94,13.78-2.83c4.28-1.89,8.05-4.44,11.3-7.64c3.25-3.2,5.82-6.98,7.7-11.33c1.88-4.35,2.83-8.99,2.83-13.91
		C209.19,136.87,207.73,131.09,204.81,125.82 M191.84,150.78c-1.03,2.39-2.43,4.5-4.21,6.33c-1.78,1.83-3.86,3.25-6.27,4.28
		c-2.4,1.02-4.98,1.54-7.73,1.54H94.58v-39.67h75.1h3.95c2.75,0,5.32,0.52,7.73,1.54c2.41,1.02,4.49,2.42,6.27,4.19
		c1.77,1.76,3.18,3.87,4.21,6.33c1.03,2.45,1.54,5.04,1.54,7.78C193.38,145.82,192.87,148.38,191.84,150.78"/>
	<path style="clip-path:url(#SVGID_00000118383870636030480720000004597138767590785952_);fill:#442B6C;" d="M478.82,107.31v-0.04
		h-36.6h-28.43h-0.47v-0.03c-8.57-0.34-15.42-7.37-15.42-16.03c0-8.65,6.85-15.69,15.42-16.03v-0.03h0.47h28.43h43.88v6.87h15.35
		V59.19h-15.35h-72.32v0.02c-17.35,0.39-31.3,14.56-31.3,32.01c0,17.45,13.95,31.62,31.3,32.01v0.02h33.77h29.98
		c10.96,0,19.84,8.88,19.84,19.84c0,10.96-8.88,19.84-19.84,19.84h0h-29.98H389.1v15.97h88.55v-0.01
		c19.64-0.15,35.52-16.12,35.52-35.8C513.18,123.79,497.92,108.07,478.82,107.31"/>
	<path style="clip-path:url(#SVGID_00000118383870636030480720000004597138767590785952_);fill:#442B6C;" d="M1081.99,106.28v-0.04
		h-54.03h-0.47v-0.03c-8.57-0.34-15.42-7.37-15.42-16.03c0-8.65,6.85-15.69,15.42-16.03v-0.03h0.47h61.31h15.35V58.16h-15.35h-61.31
		v0.02c-17.35,0.39-31.3,14.56-31.3,32.01c0,17.45,13.95,31.62,31.3,32.01v0.02h52.75c10.96,0,19.84,8.88,19.84,19.84
		c0,10.96-8.88,19.84-19.84,19.84h0h-77.43v15.97h77.55v-0.01c19.64-0.15,35.52-16.12,35.52-35.8
		C1116.35,122.76,1101.1,107.04,1081.99,106.28"/>
	<polygon style="clip-path:url(#SVGID_00000118383870636030480720000004597138767590785952_);fill:#442B6C;" points="342.85,59.19 
		300.97,59.19 285,59.19 243.12,59.19 227.77,59.19 227.77,74.44 227.77,75.16 227.77,94.46 243.12,94.46 243.74,94.46 
		243.74,75.16 285,75.16 285,178.89 285.17,178.89 285.17,179.06 300.97,179.06 300.97,75.16 342.22,75.16 342.22,94.46 
		342.85,94.46 358.19,94.46 358.19,75.16 358.19,74.44 358.19,59.19 	"/>
</g>
</svg>
