<?xml version="1.0" encoding="utf-8"?>
<!-- Generator: Adobe Illustrator 25.4.1, SVG Export Plug-In . SVG Version: 6.00 Build 0)  -->
<svg version="1.1" id="Layer_1" xmlns="http://www.w3.org/2000/svg" xmlns:xlink="http://www.w3.org/1999/xlink" x="0px" y="0px"
	 viewBox="0 0 1170.78 247.3" style="enable-background:new 0 0 1170.78 247.3;" xml:space="preserve">
<style type="text/css">
	.st0{fill:#901D81;}
</style>
<g>
	<path class="st0" d="M317.23,115.61c2.3-2.6,4.12-5.52,5.47-8.76c1.35-3.24,2.02-6.72,2.02-10.41c0-3.9-0.73-7.54-2.17-10.94
		c-1.45-3.39-3.45-6.37-5.99-8.91c-2.55-2.55-5.49-4.54-8.84-5.99c-3.35-1.45-6.97-2.17-10.86-2.17h-79.3v13.93h35.14h44.15
		c1.9,0,3.72,0.37,5.47,1.12c1.75,0.75,3.24,1.75,4.49,3c1.25,1.25,2.25,2.75,3,4.49c0.75,1.75,1.12,3.57,1.12,5.47
		c0,3.9-1.37,7.19-4.12,9.89c-2.75,2.7-6.07,4.04-9.96,4.04h-58.9h-6.62h-13.78v13.93v48.54h13.78h68.9c4.28,0,8.29-0.82,12.02-2.47
		c3.73-1.65,7.02-3.87,9.86-6.67c2.84-2.8,5.08-6.09,6.72-9.89c1.64-3.79,2.46-7.84,2.46-12.13c0-5.49-1.27-10.54-3.82-15.13
		C324.94,121.95,321.52,118.3,317.23,115.61z M316.18,148.31c-0.9,2.09-2.12,3.93-3.67,5.52c-1.55,1.59-3.37,2.83-5.47,3.73
		c-2.1,0.89-4.34,1.34-6.74,1.34h-68.96V124.3h65.51h3.45c2.4,0,4.64,0.45,6.74,1.34c2.1,0.89,3.92,2.11,5.47,3.65
		c1.55,1.54,2.77,3.38,3.67,5.52c0.9,2.14,1.35,4.4,1.35,6.79C317.53,143.99,317.08,146.22,316.18,148.31z"/>
	<path class="st0" d="M426.97,110.4v-0.03h-31.92h-24.8h-0.41v-0.03c-7.48-0.29-13.45-6.43-13.45-13.98s5.98-13.69,13.45-13.98
		v-0.03h0.41h24.8h38.28h13.39V68.42h-13.39h-63.08v0.02c-15.14,0.34-27.31,12.7-27.31,27.92s12.17,27.59,27.31,27.92v0.02h29.46
		h26.15c9.56,0,17.3,7.75,17.3,17.3s-7.75,17.3-17.3,17.3c0,0,0,0,0,0H399.7c0,0,0,0,0,0H348.7v13.93h77.25v-0.01
		c17.14-0.13,30.99-14.06,30.99-31.23C456.94,124.77,443.63,111.06,426.97,110.4z"/>
	<path class="st0" d="M470.82,120.63c0,28.64,23.3,51.93,51.93,51.93h61.36v-13.52h-61.36c-18.78,0-34.44-13.55-37.76-31.38h82.63
		v-14.07H485c3.32-17.83,18.98-31.38,37.76-31.38h61.36V68.69h-61.36C494.12,68.69,470.82,91.99,470.82,120.63z"/>
	<path class="st0" d="M150.8,68.69h-1.61l0,0h-32.05c-28.64,0-51.93,23.3-51.93,51.94c0,28.64,23.3,51.93,51.93,51.93h32.05v0h1.61
		c28.64,0,51.93-23.3,51.93-51.94C202.74,91.99,179.44,68.69,150.8,68.69z M150.8,159.04h-1.61h-25.93h-6.12
		c-21.18,0-38.41-17.23-38.41-38.41s17.23-38.41,38.41-38.41h6.12h25.93h1.61c21.18,0,38.41,17.23,38.41,38.41
		S171.99,159.04,150.8,159.04z"/>
	<path class="st0" d="M692.65,124.01c15.14-0.34,27.31-12.7,27.31-27.92s-12.17-27.59-27.31-27.92v-0.02h-86.7v13.93h61.89h24.8
		h0.41v0.03c7.48,0.29,13.45,6.43,13.45,13.98c0,7.55-5.98,13.69-13.45,13.98v0.03h-0.41h-24.8h-31.92v0.03
		c-16.66,0.66-29.97,14.38-29.97,31.2v31.23h13.78v-31.23c0-9.56,7.75-17.3,17.3-17.3h26.15h7.52l34.4,48.54h14.85l-33.45-48.54
		h6.14V124.01z"/>
	<path class="st0" d="M1079.59,124.02v-0.02c15.14-0.34,27.31-12.7,27.31-27.92s-12.17-27.59-27.31-27.92v-0.02h-86.7v13.93h61.89
		h24.8h0.41v0.03c7.48,0.29,13.45,6.43,13.45,13.98c0,7.55-5.98,13.69-13.45,13.98v0.03h-0.41h-24.8h-31.92v0.03
		c-16.66,0.66-29.97,14.38-29.97,31.2v31.23h13.78v-31.23c0-9.56,7.75-17.3,17.3-17.3h26.15h7.52l34.4,48.54h14.85l-33.45-48.54
		H1079.59z"/>
	<path class="st0" d="M857.44,120.63c0,28.64,23.3,51.93,51.93,51.93h61.36v-13.52h-61.36c-18.78,0-34.44-13.55-37.76-31.38h82.63
		v-14.07h-82.63c3.31-17.83,18.98-31.38,37.76-31.38h61.36V68.69h-61.36C880.74,68.69,857.44,91.99,857.44,120.63z"/>
	<path class="st0" d="M804.37,151.4c-2,4.63-6.56,7.62-11.6,7.62c-5.04,0-9.6-2.99-11.6-7.62l-36.04-83.26h-14.77l38.37,88.64
		c4.15,9.59,13.59,15.79,24.04,15.79c10.45,0,19.89-6.2,24.04-15.79l38.37-88.64h-14.77L804.37,151.4z"/>
</g>
</svg>
