<?xml version="1.0"?>
<svg xmlns="http://www.w3.org/2000/svg" xmlns:xlink="http://www.w3.org/1999/xlink" xmlns:svgjs="http://svgjs.com/svgjs" version="1.1" width="512" height="512" x="0" y="0" viewBox="0 0 512 512" style="enable-background:new 0 0 512 512" xml:space="preserve"><g><path xmlns="http://www.w3.org/2000/svg" d="m271 182.519531v31.242188c17.421875 6.214843 30 22.707031 30 42.238281s-12.578125 36.023438-30 42.238281v31.242188c34.191406-6.96875 60-37.265625 60-73.480469s-25.808594-66.511719-60-73.480469zm0 0" fill="#ffffff" data-original="#000000" style=""/><path xmlns="http://www.w3.org/2000/svg" d="m256 241c-8.277344 0-15 6.722656-15 15s6.722656 15 15 15 15-6.722656 15-15-6.722656-15-15-15zm0 0" fill="#ffffff" data-original="#000000" style=""/><path xmlns="http://www.w3.org/2000/svg" d="m211 256c0-19.53125 12.578125-36.023438 30-42.238281v-31.242188c-34.191406 6.96875-60 37.265625-60 73.480469s25.808594 66.511719 60 73.480469v-31.242188c-17.421875-6.214843-30-22.707031-30-42.238281zm0 0" fill="#ffffff" data-original="#000000" style=""/><path xmlns="http://www.w3.org/2000/svg" d="m241 0h30v30h-30zm0 0" fill="#ffffff" data-original="#000000" style=""/><path xmlns="http://www.w3.org/2000/svg" d="m241 482h30v30h-30zm0 0" fill="#ffffff" data-original="#000000" style=""/><path xmlns="http://www.w3.org/2000/svg" d="m361 0h151v30h-151zm0 0" fill="#ffffff" data-original="#000000" style=""/><path xmlns="http://www.w3.org/2000/svg" d="m361 60h151v30h-151zm0 0" fill="#ffffff" data-original="#000000" style=""/><path xmlns="http://www.w3.org/2000/svg" d="m512 256c-58.011719-69.457031-150.292969-156.324219-241-165.125v-30.875h-30v30.878906c-90.664062 8.796875-182.925781 95.589844-241 165.121094 31.832031 38.113281 74.722656 81.105469 121 113.695312v56.496094l-40.703125 13.234375c-8.246094-10.527343-20.921875-17.425781-35.296875-17.425781-24.8125 0-45 20.1875-45 45s20.1875 45 45 45c24.53125 0 45.460938-19.746094 45.914062-44.171875l60.085938-20.015625v-58.875c29.222656 16.730469 59.636719 29.242188 90 32.1875v30.875h30v-30.878906c30.359375-2.945313 60.773438-15.449219 90-32.179688v58.867188l61.085938 20.019531c.453124 24.425781 20.382812 44.171875 44.914062 44.171875 24.8125 0 45-20.1875 45-45s-20.1875-45-45-45c-14.375 0-27.050781 6.898438-35.296875 17.425781l-40.703125-13.238281v-56.496094c46.257812-32.570312 89.144531-75.546875 121-113.691406zm-256 105c-57.890625 0-105-47.109375-105-105s47.109375-105 105-105 105 47.109375 105 105-47.109375 105-105 105zm0 0" fill="#ffffff" data-original="#000000" style=""/></g></svg>
