<svg id="_x31_px" enable-background="new 0 0 24 24" height="512" viewBox="0 0 24 24" width="512" xmlns="http://www.w3.org/2000/svg"><path d="m18 20c-1.379 0-2.5-1.121-2.5-2.5s1.121-2.5 2.5-2.5 2.5 1.121 2.5 2.5-1.121 2.5-2.5 2.5zm0-4c-.827 0-1.5.673-1.5 1.5s.673 1.5 1.5 1.5 1.5-.673 1.5-1.5-.673-1.5-1.5-1.5z"/><path d="m18.774 24h-1.549c-.51 0-.932-.388-.981-.902l-.123-1.273c-.29-.133-.567-.299-.829-.495l-1.121.521c-.472.219-1.014.038-1.267-.414l-.775-1.382c-.247-.441-.13-1.001.274-1.302l1.001-.741c-.019-.155-.033-.328-.033-.511s.015-.355.033-.511l-1-.741c-.405-.301-.522-.86-.274-1.303l.773-1.38c.254-.454.8-.631 1.267-.416l1.122.521c.262-.196.539-.362.829-.495l.123-1.273c.05-.515.472-.903.982-.903h1.549c.51 0 .932.388.981.902l.123 1.273c.29.133.567.299.829.495l1.121-.521c.472-.22 1.014-.039 1.267.414l.775 1.382c.247.441.13 1.001-.274 1.302l-1.001.741c.019.155.033.328.033.511s-.015.355-.033.511l1 .741c.405.301.522.86.274 1.303l-.773 1.38c-.254.454-.8.632-1.267.416l-1.122-.521c-.262.196-.539.362-.829.495l-.123 1.273c-.05.515-.472.903-.982.903zm-3.411-3.755c.117 0 .234.041.326.121.328.283.69.5 1.075.644.18.067.305.23.323.421l.152 1.571 1.535-.002.138-1.569c.019-.19.144-.354.323-.421.385-.144.747-.36 1.075-.644.146-.127.358-.158.537-.074l1.403.651.747-1.378-1.239-.93c-.151-.111-.227-.3-.195-.486.037-.211.065-.427.065-.649s-.028-.438-.065-.649c-.031-.187.044-.375.195-.486l1.242-.92-.776-1.392-1.376.654c-.179.082-.391.054-.537-.074-.328-.283-.69-.5-1.075-.644-.18-.067-.305-.23-.323-.421l-.152-1.571-1.535.003-.138 1.569c-.019.19-.144.354-.323.421-.385.144-.747.36-1.075.644-.148.127-.359.156-.537.074l-1.403-.651-.747 1.378 1.239.93c.151.111.227.3.195.486-.037.211-.065.427-.065.649s.028.438.065.649c.031.187-.044.375-.195.486l-1.242.92.776 1.392 1.376-.654c.068-.032.14-.048.211-.048z"/><path d="m18.5 8h-15c-1.93 0-3.5-1.57-3.5-3.5s1.57-3.5 3.5-3.5h15c1.93 0 3.5 1.57 3.5 3.5s-1.57 3.5-3.5 3.5zm-15-6c-1.379 0-2.5 1.121-2.5 2.5s1.121 2.5 2.5 2.5h15c1.379 0 2.5-1.121 2.5-2.5s-1.121-2.5-2.5-2.5z"/><path d="m4.5 6c-.827 0-1.5-.673-1.5-1.5s.673-1.5 1.5-1.5 1.5.673 1.5 1.5-.673 1.5-1.5 1.5zm0-2c-.275 0-.5.225-.5.5s.225.5.5.5.5-.225.5-.5-.225-.5-.5-.5z"/><path d="m9.5 6c-.827 0-1.5-.673-1.5-1.5s.673-1.5 1.5-1.5 1.5.673 1.5 1.5-.673 1.5-1.5 1.5zm0-2c-.275 0-.5.225-.5.5s.225.5.5.5.5-.225.5-.5-.225-.5-.5-.5z"/><path d="m9.5 14h-6c-1.93 0-3.5-1.57-3.5-3.5 0-.934.364-1.812 1.026-2.474s1.54-1.026 2.474-1.026h15c1.563 0 2.945 1.047 3.361 2.546.074.267-.082.542-.348.615-.268.078-.542-.082-.615-.348-.296-1.067-1.283-1.813-2.398-1.813h-15c-.666 0-1.294.261-1.767.733s-.733 1.101-.733 1.767c0 1.379 1.121 2.5 2.5 2.5h6c.276 0 .5.224.5.5s-.224.5-.5.5z"/><path d="m4.5 12c-.827 0-1.5-.673-1.5-1.5s.673-1.5 1.5-1.5 1.5.673 1.5 1.5-.673 1.5-1.5 1.5zm0-2c-.275 0-.5.225-.5.5s.225.5.5.5.5-.225.5-.5-.225-.5-.5-.5z"/><path d="m9.5 12c-.827 0-1.5-.673-1.5-1.5s.673-1.5 1.5-1.5 1.5.673 1.5 1.5-.673 1.5-1.5 1.5zm0-2c-.275 0-.5.225-.5.5s.225.5.5.5.5-.225.5-.5-.225-.5-.5-.5z"/><path d="m9.5 20h-6c-1.93 0-3.5-1.57-3.5-3.5 0-.934.364-1.812 1.026-2.474s1.54-1.026 2.474-1.026h6c.276 0 .5.224.5.5s-.224.5-.5.5h-6c-.666 0-1.294.261-1.767.733s-.733 1.101-.733 1.767c0 1.379 1.121 2.5 2.5 2.5h6c.276 0 .5.224.5.5s-.224.5-.5.5z"/><path d="m4.5 18c-.827 0-1.5-.673-1.5-1.5s.673-1.5 1.5-1.5 1.5.673 1.5 1.5-.673 1.5-1.5 1.5zm0-2c-.275 0-.5.225-.5.5s.225.5.5.5.5-.225.5-.5-.225-.5-.5-.5z"/><path d="m9.5 18c-.827 0-1.5-.673-1.5-1.5s.673-1.5 1.5-1.5 1.5.673 1.5 1.5-.673 1.5-1.5 1.5zm0-2c-.275 0-.5.225-.5.5s.225.5.5.5.5-.225.5-.5-.225-.5-.5-.5z"/></svg>